<svg width="680" height="460" viewBox="0 0 680 460" xmlns="http://www.w3.org/2000/svg" role="img">
<title>DentisTree Supplies logo</title>
<desc>A tooth silhouette with a tree in negative space, wordmark below</desc>
<defs>
<linearGradient id="toothfill" x1="0" y1="0" x2="0" y2="1">
<stop offset="0%" stop-color="#12496B"/>
<stop offset="100%" stop-color="#0E9A78"/>
</linearGradient>
</defs>

<path d="M 340,45
C 300,45 265,58 240,80
C 225,93 218,110 218,130
C 218,175 228,220 245,262
C 258,294 270,320 285,320
C 300,320 300,290 305,265
C 309,245 315,235 325,235
L 355,235
C 365,235 371,245 375,265
C 380,290 380,320 395,320
C 410,320 422,294 435,262
C 452,220 462,175 462,130
C 462,110 455,93 440,80
C 415,58 380,45 340,45 Z"
fill="url(#toothfill)"/>

<g fill="#FFFFFF">
<rect x="330" y="180" width="20" height="65" rx="5"/>
<ellipse cx="300" cy="150" rx="26" ry="34"/>
<ellipse cx="380" cy="150" rx="26" ry="34"/>
<ellipse cx="340" cy="120" rx="30" ry="38"/>
</g>

<path d="M 340,195 C 320,185 308,170 308,155" stroke="url(#toothfill)" stroke-width="5" stroke-linecap="round" fill="none"/>
<path d="M 340,180 C 358,172 368,158 368,145" stroke="url(#toothfill)" stroke-width="5" stroke-linecap="round" fill="none"/>

<text x="340" y="365" text-anchor="middle" font-family="Arial, Helvetica, sans-serif" font-size="50" font-weight="700" letter-spacing="-1">
<tspan fill="#12496B">Dentis</tspan><tspan fill="#0E9A78">Tree</tspan>
</text>

<text x="340" y="398" text-anchor="middle" font-family="Arial, Helvetica, sans-serif" font-size="15" letter-spacing="6" fill="#6B6A64">DENTAL SUPPLIES</text>
</svg>
